<?xml version="1.0" standalone="no"?>
<!DOCTYPE svg PUBLIC "-//W3C//DTD SVG 20010904//EN"
 "http://www.w3.org/TR/2001/REC-SVG-20010904/DTD/svg10.dtd">
<svg version="1.0" xmlns="http://www.w3.org/2000/svg"
 width="700.000000pt" height="700.000000pt" viewBox="0 0 700.000000 700.000000"
 preserveAspectRatio="xMidYMid meet">
<metadata>
Created by potrace 1.11, written by Peter Selinger 2001-2013
</metadata>
<g transform="translate(0.000000,700.000000) scale(0.100000,-0.100000)"
fill="#000000" stroke="none">
<path d="M3405 6986 c-57 -15 -128 -55 -264 -144 -104 -69 -300 -204 -326
-224 -5 -5 -77 -58 -160 -120 -130 -97 -291 -222 -359 -278 -117 -98 -233
-196 -242 -205 -6 -5 -42 -37 -79 -70 -124 -108 -217 -197 -420 -400 -202
-202 -268 -271 -405 -424 -41 -46 -80 -89 -85 -95 -115 -125 -391 -473 -561
-706 -92 -127 -344 -496 -344 -504 0 -3 -22 -37 -48 -78 -85 -129 -118 -222
-103 -288 26 -114 119 -162 356 -185 33 -3 74 -8 90 -10 41 -7 117 -15 195
-21 92 -7 134 -20 168 -52 52 -48 50 -36 67 -667 3 -104 7 -239 10 -300 2 -60
7 -173 10 -250 3 -77 8 -165 10 -195 2 -30 7 -102 10 -160 4 -58 8 -121 10
-140 2 -19 6 -78 10 -130 4 -52 9 -108 11 -125 2 -16 6 -64 9 -105 3 -41 7
-93 10 -115 2 -22 7 -71 10 -110 3 -38 8 -86 10 -105 2 -19 7 -66 10 -105 3
-38 8 -88 10 -110 3 -22 9 -94 15 -160 6 -66 13 -136 17 -155 16 -92 76 -166
154 -189 21 -6 87 -14 147 -16 299 -13 390 -18 577 -31 250 -18 283 -14 308
39 16 31 17 135 3 267 -5 43 -11 134 -21 315 -3 44 -7 114 -10 155 -3 41 -7
138 -10 215 -10 257 -25 296 -170 440 -116 115 -165 184 -207 293 -45 115 -56
199 -53 390 5 224 14 581 20 777 3 88 7 237 10 330 18 638 37 981 57 1020 44
86 140 121 189 69 23 -25 24 -30 23 -187 0 -147 -10 -478 -19 -697 -13 -282
-19 -495 -19 -641 l-1 -166 29 -37 c38 -51 86 -70 157 -63 67 6 112 34 139 87
27 53 30 81 35 274 3 99 7 218 10 265 3 47 7 124 10 171 2 47 7 132 10 190 3
58 8 134 10 170 2 36 7 110 10 165 24 386 25 396 49 425 11 15 37 38 57 52
l37 26 13 -24 c7 -13 16 -24 20 -24 5 0 19 -19 32 -42 22 -38 24 -53 22 -138
-3 -122 -16 -497 -20 -575 -14 -294 -20 -492 -20 -670 0 -196 1 -213 22 -250
40 -76 88 -101 182 -97 118 5 147 77 156 390 3 114 8 261 10 327 3 66 7 185
10 265 6 182 15 357 20 435 6 72 16 192 20 220 1 11 3 29 4 39 1 18 94 116
109 116 4 0 28 -29 54 -64 l48 -63 -5 -244 c-8 -387 -14 -716 -20 -1109 -16
-972 -12 -891 -46 -1023 -43 -171 -113 -280 -266 -415 -84 -74 -111 -123 -107
-196 1 -28 5 -121 9 -206 3 -85 8 -175 10 -200 2 -25 7 -99 10 -165 4 -66 8
-138 10 -160 2 -22 6 -99 10 -172 10 -199 11 -205 64 -242 29 -21 37 -21 730
-21 774 0 765 -1 797 62 20 39 22 55 39 348 3 52 7 120 10 150 2 30 7 96 11
145 3 50 7 97 9 105 4 21 19 210 19 235 0 59 -16 105 -45 134 -34 35 -72 47
-179 56 -41 3 -115 15 -163 26 -225 50 -240 89 -241 634 -1 256 3 356 19 485
2 19 7 60 10 90 3 30 8 62 10 70 2 8 7 35 10 60 4 25 13 79 21 120 8 41 17 86
20 100 3 14 10 43 16 65 5 22 12 48 14 59 7 38 81 290 94 321 4 11 18 49 31
85 119 344 397 864 598 1117 43 55 109 96 174 108 64 12 131 -34 177 -122 25
-49 26 -60 45 -708 24 -820 24 -1519 0 -1965 -5 -96 -16 -283 -20 -350 -6 -88
-14 -204 -20 -297 -3 -43 -7 -100 -10 -128 -2 -27 -7 -90 -10 -140 -4 -49 -8
-108 -10 -130 -3 -37 -10 -128 -20 -265 -2 -30 -7 -93 -10 -140 -12 -148 -12
-224 -1 -248 17 -39 62 -55 166 -58 52 -2 160 -6 240 -9 270 -12 277 -12 332
6 109 36 149 119 173 359 3 30 7 66 10 80 2 14 7 52 10 85 4 33 8 74 10 90 2
17 7 64 10 105 4 41 8 82 10 90 3 8 7 49 10 90 4 41 8 91 10 110 2 19 7 71 10
115 3 44 8 103 11 130 2 28 6 93 9 145 3 52 7 133 10 180 20 369 31 660 40
1095 5 285 10 360 21 400 10 32 53 84 82 99 41 20 189 43 397 61 188 16 224
23 285 53 77 38 103 79 97 153 -3 31 -14 78 -26 104 -19 43 -143 233 -255 390
-404 570 -553 810 -615 992 -23 68 -58 201 -65 248 -3 17 -12 73 -22 125 -9
52 -18 104 -19 115 -2 11 -11 67 -20 125 -9 58 -18 117 -20 133 -2 15 -9 64
-16 110 -15 109 -15 113 -23 177 -4 30 -9 66 -11 80 -3 14 -7 48 -10 75 -3 28
-8 61 -10 75 -5 35 -14 97 -21 150 -18 135 -40 195 -93 249 -65 66 -106 76
-406 96 -38 3 -92 7 -120 10 -168 16 -241 16 -285 0 -94 -33 -119 -85 -145
-299 -3 -22 -7 -51 -9 -65 -3 -14 -7 -53 -11 -86 -8 -82 -11 -100 -16 -100 -8
0 -205 126 -294 188 -501 347 -781 535 -834 560 -72 34 -174 44 -246 23z"/>
</g>
</svg>
