<svg xmlns="http://www.w3.org/2000/svg" viewBox="0 0 156.36 125.54"><g id="Layer_2" data-name="Layer 2"><g id="Layer_1-2" data-name="Layer 1"><path d="M70.27,83.55c-2.15-2.84-4.36-5.64-6.43-8.54-4.49-6.3-9.42-12.35-13.23-19-8.55-15-6.11-34.47,5.7-45.6C67.69-.35,81.39-2.4,95.8,2.58c14,4.85,21.36,15.4,23,30.14,1.26,11-1.95,20.54-8.18,29.28-4,5.62-8.3,11-12.44,16.52-1.22,1.62-2.37,3.3-4,5.64,2,.19,3.37.42,4.7.42q24.51,0,49,0c6.51,0,8.43,1.92,8.44,8.42q0,12.35,0,24.68c0,6.11-1.73,7.83-7.71,7.83q-70.44,0-140.87,0c-6.13,0-7.74-1.61-7.75-7.72,0-7.74,0-15.49,0-23.23,0-8.54,1.48-10,10.22-10H69.68Zm12,17c-.82-1.24-1.52-2.31-2.25-3.37-1.49-2.16-2.65-4.44-6-4.42q-31.2.18-62.41,0c-2.93,0-3.82,1.21-3.78,3.88.07,5.45,0,10.89,0,16.33,0,4.7.18,4.86,4.92,4.86q28.49,0,57,0c12,0,24-.06,35.92,0,2.91,0,4.15-.91,4.06-4-.18-5.8-.13-11.61,0-17.41,0-2.61-.89-3.79-3.58-3.7a64,64,0,0,1-9.79,0c-5.87-.7-10.46.56-12.77,6.58C83.4,99.7,82.9,100,82.28,100.53ZM59.85,37.11A22.73,22.73,0,0,0,82.47,59.74c12.34-.07,22.73-10.43,22.73-22.67a22.93,22.93,0,0,0-23-22.72A22.51,22.51,0,0,0,59.85,37.11Z"/></g></g></svg>