<svg xmlns="http://www.w3.org/2000/svg" viewBox="0 0 136.52 137.09"><g fill="#ff8000" id="Layer_2" data-name="Layer 2"><g id="Layer_1-2" data-name="Layer 1"><path d="M93.27,15.46c.36-2.89.6-5.22,1-7.53.39-2.57,1.92-3.79,4.56-3.58,3.4.28,6.82.46,10.22.8,3.1.32,4.75,2.12,5.17,5.25,1.13,8.33,2.12,16.68,3.68,24.92a29.44,29.44,0,0,0,4,9.9c4,6.5,8.69,12.64,12.9,19,3.33,5.08,1.91,7.61-4.16,8-2.47.17-4.94.52-7.41.79-2.71.3-3.78,1.67-3.83,4.54-.19,10-.47,20.12-1.07,30.15-.47,7.75-1.28,15.49-2.27,23.2-.56,4.35-2.38,5.39-6.64,5.06-2.79-.22-5.6-.28-8.39-.3-2,0-2.8-.83-2.67-2.85.91-13.45,2.21-26.89,2.5-40.35.32-14-.28-28-.72-42a5.16,5.16,0,0,0-2.76-3.94c-1.22-.37-3.58.67-4.42,1.83C80.24,66,74.7,85.45,76.61,107c.25,2.9,1.78,4,4.28,4.37a23.69,23.69,0,0,0,3.67.63c3.44,0,4.38,1.63,4,4.89-.59,5.47-.87,11-1.22,16.45-.13,1.94-1.07,2.75-3,2.75q-12.78,0-25.54,0a2.4,2.4,0,0,1-2.77-2.58c-.4-6.93-.88-13.86-1.15-20.8a4,4,0,0,1,1.56-2.82c4.81-3.54,6.39-8.38,6.45-14.11.12-13.27.42-26.54.65-39.81,0-.42.15-.94,0-1.23-.59-.89-1.31-1.7-2-2.54-.74.81-2,1.57-2.11,2.46-.45,3.91-.61,7.85-.77,11.79-.22,5.28-.35,10.57-.52,15.86,0,.31,0,.62,0,.93-.28,2.16-.73,4.34-3.54,4.21-2.63-.12-3.42-2.2-3.5-4.38-.1-2.89.1-5.8.21-8.7.25-6.63.59-13.26.69-19.89,0-.9-1.2-1.83-1.84-2.74-.75.76-2.1,1.47-2.16,2.28C47.4,62,47,70,46.57,78c-.1,1.86,0,3.74-.16,5.6-.15,2.37-1.29,4-3.85,3.94s-3.22-2-3.17-4.17c.14-5.39.39-10.78.58-16.17.15-4.15.27-8.29.4-12.44.05-1.61-.32-3.22-2.25-2.84a3.6,3.6,0,0,0-2.24,2.56c-.43,5-.58,9.93-.74,14.9Q34.71,83.18,34.38,97a14.88,14.88,0,0,0,5.38,12.07,7.33,7.33,0,0,1,2.9,5.52q.41,9.63,1.17,19.24c.19,2.44-.47,3.42-3,3.21q-7.74-.62-15.52-.85c-3.23-.09-4.72-1.7-5-4.74-.81-9.09-1.79-18.16-2.36-27.26-.55-8.8-.76-17.61-.94-26.42-.06-2.65-1.09-3.75-3.63-3.94s-5.36-.6-8-.91c-5.24-.61-6.67-3.43-3.95-7.84A199.22,199.22,0,0,1,63.55,1.61c3.21-2.07,6.11-2.2,9.2-.06q8.58,5.93,17.17,11.83C90.88,14,91.91,14.62,93.27,15.46Z"/></g></g></svg>